<svg width="20" height="20" viewBox="0 0 20 20" fill="none" xmlns="http://www.w3.org/2000/svg">
<path d="M19.7773 11.2975H17.5145C17.386 11.2975 17.2631 11.242 17.1765 11.1448L11.0615 4.13669V19.7778C11.0615 19.9 10.961 20 10.838 20H9.16195C9.03904 20 8.93847 19.9 8.93847 19.7778V4.13669L2.8235 11.1448C2.73969 11.242 2.61678 11.2975 2.48549 11.2975H0.22275C0.0327921 11.2975 -0.0705674 11.0725 0.0551401 10.9309L9.32677 0.306274C9.41058 0.210136 9.51419 0.133034 9.63059 0.0801907C9.74698 0.0273476 9.87344 0 10.0014 0C10.1294 0 10.2558 0.0273476 10.3722 0.0801907C10.4886 0.133034 10.5922 0.210136 10.676 0.306274L19.9449 10.9309C20.0706 11.0753 19.9672 11.2975 19.7773 11.2975Z" fill="black"/>
</svg>
